<svg xmlns="http://www.w3.org/2000/svg" viewBox="67.03 104.94999999999999 440.94000000000005 319.31"><rect height="100%" width="100%" x="67.03" y="104.94999999999999" fill="#ffffff"/> <svg xmlns="http://www.w3.org/2000/svg" version="1.1" id="Layer_1" x="202" y="174" viewBox="285.9971618652344 370.6100158691406 452.0129089355469 282.7900085449219" xml:space="preserve" height="106" width="171" preserveAspectRatio="xMinYMin" enable-background="new 0 0 1024 1024" style="overflow: visible;"><path class="st0" d="M728.44,557.75h-28.79c0.06-1.1,0.1-2.2,0.1-3.32c0-33.52-27.18-60.7-60.7-60.7c-1.93,0-3.84,0.1-5.72,0.28   c-5.07-49.36-46.77-87.86-97.47-87.86c-50.63,0-92.29,38.4-97.45,87.66c-1.04-0.05-2.09-0.08-3.14-0.08   c-33.52,0-60.7,27.18-60.7,60.7c0,1.11,0.04,2.22,0.1,3.32h-49.19c-5.28,0-9.56,4.28-9.56,9.56c0,5.28,4.28,9.56,9.56,9.56h108.39   c5.28,0,9.56,4.28,9.56,9.56c0,5.28-4.28,9.56-9.56,9.56H375.2c-5.28,0-9.56,4.28-9.56,9.56c0,5.28,4.28,9.56,9.56,9.56h107.12   c5.28,0,9.56,4.28,9.56,9.56c0,5.28-4.28,9.56-9.56,9.56h-22.95c-5.28,0-9.56,4.28-9.56,9.56c0,5.28,4.28,9.56,9.56,9.56h140.28   c5.28,0,9.56-4.28,9.56-9.56c0-5.28-4.28-9.56-9.56-9.56h-45.91c-5.28,0-9.56-4.28-9.56-9.56c0-5.28,4.28-9.56,9.56-9.56h93.09   c5.28,0,9.56-4.28,9.56-9.56c0-5.28-4.28-9.56-9.56-9.56h-42.08c-5.28,0-9.56-4.28-9.56-9.56c0-5.28,4.28-9.56,9.56-9.56h123.7   c5.28,0,9.56-4.28,9.56-9.56C738,562.03,733.72,557.75,728.44,557.75z" style="fill: #474A53;"></path><path class="st0" d="M428.23,634.27h-18.07c-4.87,0-8.82,3.95-8.82,8.82v1.49c0,4.87,3.95,8.82,8.82,8.82h18.07   c4.87,0,8.82-3.95,8.82-8.82v-1.49C437.05,638.21,433.1,634.27,428.23,634.27z" style="fill: #474A53;"></path><path class="st0" d="M701.13,596.01h-23.17c-4.87,0-8.82,3.95-8.82,8.82v1.49c0,4.87,3.95,8.82,8.82,8.82h23.17   c4.87,0,8.82-3.95,8.82-8.82v-1.49C709.94,599.96,706,596.01,701.13,596.01z" style="fill: #474A53;"></path><circle class="st0" cx="343.32" cy="605.57" r="9.56" style="fill: #474A53;"></circle><path class="st0" d="M370.11,521.51c10.99-21.66,32.46-37.14,57.7-39.71c5.66-27.72,21.52-51.33,43.36-67.1   c-9.38-25.72-34.04-44.09-63.01-44.09c-35.79,0-65.02,28.03-66.96,63.33c-6.95-1.51-14.46-1.54-22.3,0.8   c-18.08,5.39-31.43,21.5-32.78,40.32c-0.07,0.94-0.11,1.87-0.12,2.79c-0.28,24.24,20.21,43.66,44.45,43.66H370.11z" style="fill: #474A53;"></path></svg> <svg y="340" viewBox="-0.020000001415610313 3.799999952316284 300.94000244140625 13.730000495910645" x="137" height="13" width="300" style="overflow: visible;"><g fill="#474a53" fill-opacity="1" style=""><path d="M11.03 4.82L12.83 4.82L7.31 17.42L5.53 17.42L-0.02 4.82L1.93 4.82L6.46 15.17L11.03 4.82ZM15.20 17.42L15.20 7.88L16.93 7.88L16.93 17.42L15.20 17.42ZM16.07 6.05Q15.56 6.05 15.23 5.72Q14.90 5.40 14.90 4.93L14.90 4.93Q14.90 4.46 15.23 4.13Q15.56 3.80 16.07 3.80L16.07 3.80Q16.57 3.80 16.90 4.11Q17.24 4.43 17.24 4.90L17.24 4.90Q17.24 5.38 16.90 5.72Q16.57 6.05 16.07 6.05L16.07 6.05ZM22.88 9.49Q23.33 8.66 24.21 8.23Q25.09 7.79 26.35 7.79L26.35 7.79L26.35 9.47Q26.21 9.45 25.96 9.45L25.96 9.45Q24.55 9.45 23.75 10.29Q22.95 11.12 22.95 12.67L22.95 12.67L22.95 17.42L21.22 17.42L21.22 7.88L22.88 7.88L22.88 9.49ZM34.70 15.62L35.24 16.87Q34.86 17.19 34.30 17.36Q33.74 17.53 33.15 17.53L33.15 17.53Q31.71 17.53 30.92 16.76Q30.13 15.98 30.13 14.54L30.13 14.54L30.13 9.31L28.51 9.31L28.51 7.88L30.13 7.88L30.13 5.80L31.85 5.80L31.85 7.88L34.59 7.88L34.59 9.31L31.85 9.31L31.85 14.47Q31.85 15.25 32.24 15.66Q32.63 16.07 33.35 16.07L33.35 16.07Q34.14 16.07 34.70 15.62L34.70 15.62ZM45.49 7.88L47.22 7.88L47.22 17.42L45.58 17.42L45.58 15.98Q45.06 16.72 44.20 17.13Q43.35 17.53 42.34 17.53L42.34 17.53Q40.43 17.53 39.33 16.48Q38.24 15.43 38.24 13.37L38.24 13.37L38.24 7.88L39.96 7.88L39.96 13.18Q39.96 14.56 40.63 15.27Q41.30 15.98 42.54 15.98L42.54 15.98Q43.91 15.98 44.70 15.16Q45.49 14.33 45.49 12.82L45.49 12.82L45.49 7.88ZM54.99 7.79Q56.97 7.79 58.02 8.77Q59.07 9.74 59.07 11.66L59.07 11.66L59.07 17.42L57.43 17.42L57.43 16.16Q57.00 16.83 56.20 17.18Q55.40 17.53 54.30 17.53L54.30 17.53Q52.70 17.53 51.74 16.76Q50.77 15.98 50.77 14.72L50.77 14.72Q50.77 13.46 51.69 12.70Q52.61 11.93 54.61 11.93L54.61 11.93L57.34 11.93L57.34 11.59Q57.34 10.48 56.70 9.88Q56.05 9.29 54.79 9.29L54.79 9.29Q53.94 9.29 53.13 9.57Q52.32 9.85 51.76 10.31L51.76 10.31L51.04 9.02Q51.78 8.42 52.81 8.11Q53.83 7.79 54.99 7.79L54.99 7.79ZM54.59 16.20Q55.58 16.20 56.30 15.76Q57.02 15.32 57.34 14.51L57.34 14.51L57.34 13.18L54.68 13.18Q52.48 13.18 52.48 14.65L52.48 14.65Q52.48 15.37 53.04 15.79Q53.60 16.20 54.59 16.20L54.59 16.20ZM63.28 17.42L63.28 4.07L65.00 4.07L65.00 17.42L63.28 17.42ZM69.30 17.42L69.30 7.88L71.03 7.88L71.03 17.42L69.30 17.42ZM70.16 6.05Q69.66 6.05 69.33 5.72Q68.99 5.40 68.99 4.93L68.99 4.93Q68.99 4.46 69.33 4.13Q69.66 3.80 70.16 3.80L70.16 3.80Q70.67 3.80 71.00 4.11Q71.33 4.43 71.33 4.90L71.33 4.90Q71.33 5.38 71.00 5.72Q70.67 6.05 70.16 6.05L70.16 6.05ZM76.62 16.00L82.39 16.00L82.39 17.42L74.40 17.42L74.40 16.31L80.04 9.31L74.51 9.31L74.51 7.88L82.25 7.88L82.25 9.02L76.62 16.00ZM89.17 7.79Q91.15 7.79 92.21 8.77Q93.26 9.74 93.26 11.66L93.26 11.66L93.26 17.42L91.62 17.42L91.62 16.16Q91.19 16.83 90.39 17.18Q89.59 17.53 88.49 17.53L88.49 17.53Q86.89 17.53 85.92 16.76Q84.96 15.98 84.96 14.72L84.96 14.72Q84.96 13.46 85.88 12.70Q86.80 11.93 88.79 11.93L88.79 11.93L91.53 11.93L91.53 11.59Q91.53 10.48 90.88 9.88Q90.23 9.29 88.97 9.29L88.97 9.29Q88.13 9.29 87.32 9.57Q86.51 9.85 85.95 10.31L85.95 10.31L85.23 9.02Q85.97 8.42 86.99 8.11Q88.02 7.79 89.17 7.79L89.17 7.79ZM88.78 16.20Q89.77 16.20 90.49 15.76Q91.21 15.32 91.53 14.51L91.53 14.51L91.53 13.18L88.87 13.18Q86.67 13.18 86.67 14.65L86.67 14.65Q86.67 15.37 87.23 15.79Q87.79 16.20 88.78 16.20L88.78 16.20ZM102.29 15.62L102.83 16.87Q102.45 17.19 101.89 17.36Q101.33 17.53 100.74 17.53L100.74 17.53Q99.30 17.53 98.51 16.76Q97.71 15.98 97.71 14.54L97.71 14.54L97.71 9.31L96.09 9.31L96.09 7.88L97.71 7.88L97.71 5.80L99.44 5.80L99.44 7.88L102.18 7.88L102.18 9.31L99.44 9.31L99.44 14.47Q99.44 15.25 99.83 15.66Q100.22 16.07 100.94 16.07L100.94 16.07Q101.73 16.07 102.29 15.62L102.29 15.62ZM105.91 17.42L105.91 7.88L107.64 7.88L107.64 17.42L105.91 17.42ZM106.78 6.05Q106.27 6.05 105.94 5.72Q105.61 5.40 105.61 4.93L105.61 4.93Q105.61 4.46 105.94 4.13Q106.27 3.80 106.78 3.80L106.78 3.80Q107.28 3.80 107.62 4.11Q107.95 4.43 107.95 4.90L107.95 4.90Q107.95 5.38 107.62 5.72Q107.28 6.05 106.78 6.05L106.78 6.05ZM116.02 17.53Q114.60 17.53 113.47 16.90Q112.33 16.27 111.69 15.17Q111.05 14.06 111.05 12.65L111.05 12.65Q111.05 11.25 111.69 10.14Q112.33 9.04 113.47 8.42Q114.60 7.79 116.02 7.79L116.02 7.79Q117.44 7.79 118.57 8.42Q119.69 9.04 120.33 10.14Q120.97 11.25 120.97 12.65L120.97 12.65Q120.97 14.06 120.33 15.17Q119.69 16.27 118.57 16.90Q117.44 17.53 116.02 17.53L116.02 17.53ZM116.02 16.02Q116.94 16.02 117.67 15.60Q118.40 15.17 118.81 14.41Q119.23 13.64 119.23 12.65L119.23 12.65Q119.23 11.66 118.81 10.90Q118.40 10.13 117.67 9.72Q116.94 9.31 116.02 9.31L116.02 9.31Q115.10 9.31 114.38 9.72Q113.65 10.13 113.22 10.90Q112.80 11.66 112.80 12.65L112.80 12.65Q112.80 13.64 113.22 14.41Q113.65 15.17 114.38 15.60Q115.10 16.02 116.02 16.02L116.02 16.02ZM129.46 7.79Q131.28 7.79 132.35 8.85Q133.42 9.90 133.42 11.93L133.42 11.93L133.42 17.42L131.69 17.42L131.69 12.13Q131.69 10.75 131.03 10.04Q130.36 9.34 129.12 9.34L129.12 9.34Q127.71 9.34 126.90 10.16Q126.09 10.98 126.09 12.51L126.09 12.51L126.09 17.42L124.37 17.42L124.37 7.88L126.02 7.88L126.02 9.32Q126.54 8.59 127.44 8.19Q128.33 7.79 129.46 7.79L129.46 7.79ZM146.94 7.79Q148.92 7.79 149.97 8.77Q151.03 9.74 151.03 11.66L151.03 11.66L151.03 17.42L149.39 17.42L149.39 16.16Q148.96 16.83 148.16 17.18Q147.35 17.53 146.26 17.53L146.26 17.53Q144.65 17.53 143.69 16.76Q142.73 15.98 142.73 14.72L142.73 14.72Q142.73 13.46 143.65 12.70Q144.56 11.93 146.56 11.93L146.56 11.93L149.30 11.93L149.30 11.59Q149.30 10.48 148.65 9.88Q148.00 9.29 146.74 9.29L146.74 9.29Q145.90 9.29 145.09 9.57Q144.28 9.85 143.72 10.31L143.72 10.31L143.00 9.02Q143.74 8.42 144.76 8.11Q145.79 7.79 146.94 7.79L146.94 7.79ZM146.54 16.20Q147.53 16.20 148.25 15.76Q148.97 15.32 149.30 14.51L149.30 14.51L149.30 13.18L146.63 13.18Q144.44 13.18 144.44 14.65L144.44 14.65Q144.44 15.37 145.00 15.79Q145.55 16.20 146.54 16.20L146.54 16.20ZM160.32 7.79Q162.14 7.79 163.21 8.85Q164.28 9.90 164.28 11.93L164.28 11.93L164.28 17.42L162.56 17.42L162.56 12.13Q162.56 10.75 161.89 10.04Q161.22 9.34 159.98 9.34L159.98 9.34Q158.58 9.34 157.77 10.16Q156.96 10.98 156.96 12.51L156.96 12.51L156.96 17.42L155.23 17.42L155.23 7.88L156.89 7.88L156.89 9.32Q157.41 8.59 158.30 8.19Q159.19 7.79 160.32 7.79L160.32 7.79ZM175.81 4.07L177.54 4.07L177.54 17.42L175.89 17.42L175.89 15.91Q175.31 16.70 174.43 17.12Q173.55 17.53 172.48 17.53L172.48 17.53Q171.10 17.53 170.00 16.92Q168.90 16.31 168.28 15.20Q167.66 14.09 167.66 12.65L167.66 12.65Q167.66 11.21 168.28 10.12Q168.90 9.02 170.00 8.41Q171.10 7.79 172.48 7.79L172.48 7.79Q173.51 7.79 174.37 8.18Q175.24 8.57 175.81 9.32L175.81 9.32L175.81 4.07ZM172.63 16.02Q173.53 16.02 174.27 15.60Q175.00 15.17 175.42 14.41Q175.83 13.64 175.83 12.65L175.83 12.65Q175.83 11.66 175.42 10.90Q175.00 10.13 174.27 9.72Q173.53 9.31 172.63 9.31L172.63 9.31Q171.71 9.31 170.98 9.72Q170.25 10.13 169.83 10.90Q169.41 11.66 169.41 12.65L169.41 12.65Q169.41 13.64 169.83 14.41Q170.25 15.17 170.98 15.60Q171.71 16.02 172.63 16.02L172.63 16.02ZM191.13 7.79Q193.11 7.79 194.17 8.77Q195.22 9.74 195.22 11.66L195.22 11.66L195.22 17.42L193.58 17.42L193.58 16.16Q193.15 16.83 192.35 17.18Q191.55 17.53 190.45 17.53L190.45 17.53Q188.85 17.53 187.89 16.76Q186.92 15.98 186.92 14.72L186.92 14.72Q186.92 13.46 187.84 12.70Q188.76 11.93 190.76 11.93L190.76 11.93L193.49 11.93L193.49 11.59Q193.49 10.48 192.84 9.88Q192.20 9.29 190.94 9.29L190.94 9.29Q190.09 9.29 189.28 9.57Q188.47 9.85 187.91 10.31L187.91 10.31L187.19 9.02Q187.93 8.42 188.96 8.11Q189.98 7.79 191.13 7.79L191.13 7.79ZM190.74 16.20Q191.73 16.20 192.45 15.76Q193.17 15.32 193.49 14.51L193.49 14.51L193.49 13.18L190.83 13.18Q188.63 13.18 188.63 14.65L188.63 14.65Q188.63 15.37 189.19 15.79Q189.75 16.20 190.74 16.20L190.74 16.20ZM206.59 7.88L208.32 7.88L208.32 17.42L206.68 17.42L206.68 15.98Q206.16 16.72 205.30 17.13Q204.45 17.53 203.44 17.53L203.44 17.53Q201.53 17.53 200.43 16.48Q199.33 15.43 199.33 13.37L199.33 13.37L199.33 7.88L201.06 7.88L201.06 13.18Q201.06 14.56 201.73 15.27Q202.39 15.98 203.64 15.98L203.64 15.98Q205.00 15.98 205.80 15.16Q206.59 14.33 206.59 12.82L206.59 12.82L206.59 7.88ZM217.43 15.62L217.97 16.87Q217.60 17.19 217.04 17.36Q216.48 17.53 215.89 17.53L215.89 17.53Q214.45 17.53 213.65 16.76Q212.86 15.98 212.86 14.54L212.86 14.54L212.86 9.31L211.24 9.31L211.24 7.88L212.86 7.88L212.86 5.80L214.59 5.80L214.59 7.88L217.33 7.88L217.33 9.31L214.59 9.31L214.59 14.47Q214.59 15.25 214.98 15.66Q215.36 16.07 216.08 16.07L216.08 16.07Q216.88 16.07 217.43 15.62L217.43 15.62ZM224.82 17.53Q223.40 17.53 222.27 16.90Q221.13 16.27 220.50 15.17Q219.86 14.06 219.86 12.65L219.86 12.65Q219.86 11.25 220.50 10.14Q221.13 9.04 222.27 8.42Q223.40 7.79 224.82 7.79L224.82 7.79Q226.25 7.79 227.37 8.42Q228.50 9.04 229.14 10.14Q229.77 11.25 229.77 12.65L229.77 12.65Q229.77 14.06 229.14 15.17Q228.50 16.27 227.37 16.90Q226.25 17.53 224.82 17.53L224.82 17.53ZM224.82 16.02Q225.74 16.02 226.47 15.60Q227.20 15.17 227.61 14.41Q228.03 13.64 228.03 12.65L228.03 12.65Q228.03 11.66 227.61 10.90Q227.20 10.13 226.47 9.72Q225.74 9.31 224.82 9.31L224.82 9.31Q223.91 9.31 223.18 9.72Q222.45 10.13 222.03 10.90Q221.60 11.66 221.60 12.65L221.60 12.65Q221.60 13.64 222.03 14.41Q222.45 15.17 223.18 15.60Q223.91 16.02 224.82 16.02L224.82 16.02ZM245.10 7.79Q246.90 7.79 247.96 8.84Q249.01 9.88 249.01 11.93L249.01 11.93L249.01 17.42L247.28 17.42L247.28 12.13Q247.28 10.75 246.64 10.04Q246.00 9.34 244.81 9.34L244.81 9.34Q243.50 9.34 242.73 10.16Q241.95 10.98 241.95 12.51L241.95 12.51L241.95 17.42L240.22 17.42L240.22 12.13Q240.22 10.75 239.59 10.04Q238.95 9.34 237.76 9.34L237.76 9.34Q236.44 9.34 235.67 10.16Q234.90 10.98 234.90 12.51L234.90 12.51L234.90 17.42L233.17 17.42L233.17 7.88L234.82 7.88L234.82 9.31Q235.35 8.57 236.19 8.18Q237.04 7.79 238.12 7.79L238.12 7.79Q239.23 7.79 240.10 8.24Q240.96 8.69 241.43 9.56L241.43 9.56Q241.97 8.73 242.93 8.26Q243.90 7.79 245.10 7.79L245.10 7.79ZM256.67 7.79Q258.65 7.79 259.70 8.77Q260.75 9.74 260.75 11.66L260.75 11.66L260.75 17.42L259.12 17.42L259.12 16.16Q258.68 16.83 257.88 17.18Q257.08 17.53 255.98 17.53L255.98 17.53Q254.38 17.53 253.42 16.76Q252.46 15.98 252.46 14.72L252.46 14.72Q252.46 13.46 253.37 12.70Q254.29 11.93 256.29 11.93L256.29 11.93L259.03 11.93L259.03 11.59Q259.03 10.48 258.38 9.88Q257.73 9.29 256.47 9.29L256.47 9.29Q255.62 9.29 254.81 9.57Q254.00 9.85 253.45 10.31L253.45 10.31L252.73 9.02Q253.46 8.42 254.49 8.11Q255.52 7.79 256.67 7.79L256.67 7.79ZM256.27 16.20Q257.26 16.20 257.98 15.76Q258.70 15.32 259.03 14.51L259.03 14.51L259.03 13.18L256.36 13.18Q254.17 13.18 254.17 14.65L254.17 14.65Q254.17 15.37 254.72 15.79Q255.28 16.20 256.27 16.20L256.27 16.20ZM269.78 15.62L270.32 16.87Q269.94 17.19 269.39 17.36Q268.83 17.53 268.23 17.53L268.23 17.53Q266.79 17.53 266.00 16.76Q265.21 15.98 265.21 14.54L265.21 14.54L265.21 9.31L263.59 9.31L263.59 7.88L265.21 7.88L265.21 5.80L266.94 5.80L266.94 7.88L269.67 7.88L269.67 9.31L266.94 9.31L266.94 14.47Q266.94 15.25 267.33 15.66Q267.71 16.07 268.43 16.07L268.43 16.07Q269.22 16.07 269.78 15.62L269.78 15.62ZM273.41 17.42L273.41 7.88L275.14 7.88L275.14 17.42L273.41 17.42ZM274.27 6.05Q273.77 6.05 273.44 5.72Q273.10 5.40 273.10 4.93L273.10 4.93Q273.10 4.46 273.44 4.13Q273.77 3.80 274.27 3.80L274.27 3.80Q274.78 3.80 275.11 4.11Q275.44 4.43 275.44 4.90L275.44 4.90Q275.44 5.38 275.11 5.72Q274.78 6.05 274.27 6.05L274.27 6.05ZM283.52 17.53Q282.10 17.53 280.96 16.90Q279.83 16.27 279.19 15.17Q278.55 14.06 278.55 12.65L278.55 12.65Q278.55 11.25 279.19 10.14Q279.83 9.04 280.96 8.42Q282.10 7.79 283.52 7.79L283.52 7.79Q284.94 7.79 286.07 8.42Q287.19 9.04 287.83 10.14Q288.47 11.25 288.47 12.65L288.47 12.65Q288.47 14.06 287.83 15.17Q287.19 16.27 286.07 16.90Q284.94 17.53 283.52 17.53L283.52 17.53ZM283.52 16.02Q284.44 16.02 285.17 15.60Q285.89 15.17 286.31 14.41Q286.72 13.64 286.72 12.65L286.72 12.65Q286.72 11.66 286.31 10.90Q285.89 10.13 285.17 9.72Q284.44 9.31 283.52 9.31L283.52 9.31Q282.60 9.31 281.87 9.72Q281.14 10.13 280.72 10.90Q280.30 11.66 280.30 12.65L280.30 12.65Q280.30 13.64 280.72 14.41Q281.14 15.17 281.87 15.60Q282.60 16.02 283.52 16.02L283.52 16.02ZM296.96 7.79Q298.77 7.79 299.85 8.85Q300.92 9.90 300.92 11.93L300.92 11.93L300.92 17.42L299.19 17.42L299.19 12.13Q299.19 10.75 298.52 10.04Q297.86 9.34 296.61 9.34L296.61 9.34Q295.21 9.34 294.40 10.16Q293.59 10.98 293.59 12.51L293.59 12.51L293.59 17.42L291.86 17.42L291.86 7.88L293.52 7.88L293.52 9.32Q294.04 8.59 294.93 8.19Q295.82 7.79 296.96 7.79L296.96 7.79Z" transform="translate(0, 0)"></path></g></svg> <svg y="300" viewBox="2.7899999618530273 10.920000076293945 245.28001403808594 32.900001525878906" x="164" height="32" width="245" style="overflow: visible;"><g fill="#474a53" fill-opacity="1" style=""><path d="M8.82 30.32L8.82 42.35L2.79 42.35L2.79 12.24L23.87 12.24L23.87 18.27L8.82 18.27L8.82 24.29L17.85 24.29L17.85 30.32L8.82 30.32ZM45.50 19.90L45.50 42.35L44.11 42.35L41.89 39.26Q41.07 40.00 40.16 40.64Q39.24 41.28 38.23 41.75Q37.23 42.22 36.17 42.50Q35.11 42.77 34.01 42.77L34.01 42.77Q31.64 42.77 29.55 41.97Q27.46 41.17 25.90 39.65Q24.33 38.13 23.43 35.92Q22.53 33.72 22.53 30.91L22.53 30.91Q22.53 28.28 23.43 26.09Q24.33 23.89 25.90 22.32Q27.46 20.74 29.55 19.87Q31.64 19.00 34.01 19.00L34.01 19.00Q35.11 19.00 36.18 19.27Q37.25 19.55 38.25 20.03Q39.26 20.51 40.18 21.16Q41.09 21.81 41.89 22.57L41.89 22.57L44.11 19.90L45.50 19.90ZM39.72 30.91L39.72 30.91Q39.72 29.73 39.27 28.63Q38.82 27.53 38.04 26.68Q37.27 25.83 36.23 25.31Q35.19 24.80 34.01 24.80L34.01 24.80Q32.84 24.80 31.80 25.20Q30.76 25.59 29.99 26.37Q29.23 27.15 28.79 28.29Q28.34 29.44 28.34 30.91L28.34 30.91Q28.34 32.38 28.79 33.52Q29.23 34.66 29.99 35.44Q30.76 36.22 31.80 36.62Q32.84 37.02 34.01 37.02L34.01 37.02Q35.19 37.02 36.23 36.50Q37.27 35.99 38.04 35.14Q38.82 34.29 39.27 33.18Q39.72 32.08 39.72 30.91ZM55.60 29.50L55.60 42.35L49.87 42.35L49.87 10.92L55.60 10.92L55.60 20.85Q56.63 20.07 57.72 19.75Q58.81 19.42 59.94 19.42L59.94 19.42Q62.02 19.42 63.85 20.21Q65.68 21.00 67.03 22.37Q68.38 23.75 69.17 25.58Q69.96 27.42 69.96 29.50L69.96 29.50L69.96 42.35L64.19 42.35L64.19 29.50L64.23 29.50Q64.23 28.62 63.89 27.83Q63.56 27.04 62.97 26.46Q62.38 25.87 61.60 25.53Q60.83 25.20 59.94 25.20L59.94 25.20Q59.04 25.20 58.24 25.53Q57.45 25.87 56.86 26.46Q56.27 27.04 55.93 27.83Q55.60 28.62 55.60 29.50L55.60 29.50ZM93.73 23.89L82.98 36.85Q83.31 36.95 83.65 36.98Q83.98 37.02 84.32 37.02L84.32 37.02Q85.16 37.02 85.94 36.79Q86.71 36.55 87.40 36.12Q88.08 35.69 88.61 35.07Q89.15 34.45 89.49 33.70L89.49 33.70L93.68 37.92Q92.89 39.05 91.85 39.96Q90.81 40.86 89.60 41.49Q88.39 42.12 87.06 42.44Q85.73 42.77 84.32 42.77L84.32 42.77Q81.95 42.77 79.86 41.89Q77.77 41.01 76.21 39.43Q74.64 37.86 73.74 35.68Q72.84 33.51 72.84 30.91L72.84 30.91Q72.84 28.24 73.74 26.04Q74.64 23.83 76.21 22.28Q77.77 20.72 79.86 19.86Q81.95 19.00 84.32 19.00L84.32 19.00Q85.73 19.00 87.07 19.34Q88.41 19.67 89.62 20.30Q90.83 20.93 91.88 21.85Q92.93 22.76 93.73 23.89L93.73 23.89ZM79.24 33.89L85.92 25.03Q85.52 24.88 85.13 24.84Q84.74 24.80 84.32 24.80L84.32 24.80Q83.14 24.80 82.11 25.23Q81.07 25.66 80.30 26.46Q79.53 27.25 79.09 28.38Q78.65 29.50 78.65 30.91L78.65 30.91Q78.65 31.22 78.68 31.62Q78.71 32.02 78.79 32.43Q78.86 32.84 78.97 33.22Q79.07 33.59 79.24 33.89L79.24 33.89ZM102.33 29.96L102.33 42.35L96.60 42.35L96.60 19.86L97.99 19.86L99.88 22.53Q101.26 21.27 103.03 20.59Q104.79 19.90 106.68 19.90L106.68 19.90L111.74 19.90L111.74 25.62L106.68 25.62Q105.78 25.62 104.98 25.95Q104.18 26.29 103.59 26.88Q103.01 27.46 102.67 28.26Q102.33 29.06 102.33 29.96L102.33 29.96ZM120.14 29.50L120.14 42.35L114.41 42.35L114.41 19.86L115.79 19.86L117.68 22.05Q119.07 20.79 120.82 20.10Q122.58 19.42 124.49 19.42L124.49 19.42Q126.54 19.42 128.37 20.21Q130.20 21.00 131.56 22.37Q132.93 23.75 133.71 25.58Q134.50 27.42 134.50 29.50L134.50 29.50L134.50 42.35L128.77 42.35L128.77 29.50Q128.77 28.62 128.43 27.83Q128.10 27.04 127.51 26.46Q126.92 25.87 126.14 25.53Q125.37 25.20 124.49 25.20L124.49 25.20Q123.58 25.20 122.79 25.53Q121.99 25.87 121.40 26.46Q120.81 27.04 120.48 27.83Q120.14 28.62 120.14 29.50L120.14 29.50ZM158.27 23.89L147.52 36.85Q147.85 36.95 148.19 36.98Q148.53 37.02 148.86 37.02L148.86 37.02Q149.70 37.02 150.48 36.79Q151.26 36.55 151.94 36.12Q152.62 35.69 153.16 35.07Q153.69 34.45 154.03 33.70L154.03 33.70L158.23 37.92Q157.43 39.05 156.39 39.96Q155.35 40.86 154.14 41.49Q152.94 42.12 151.60 42.44Q150.27 42.77 148.86 42.77L148.86 42.77Q146.49 42.77 144.40 41.89Q142.31 41.01 140.75 39.43Q139.18 37.86 138.28 35.68Q137.38 33.51 137.38 30.91L137.38 30.91Q137.38 28.24 138.28 26.04Q139.18 23.83 140.75 22.28Q142.31 20.72 144.40 19.86Q146.49 19.00 148.86 19.00L148.86 19.00Q150.27 19.00 151.61 19.34Q152.96 19.67 154.16 20.30Q155.37 20.93 156.42 21.85Q157.47 22.76 158.27 23.89L158.27 23.89ZM143.78 33.89L150.46 25.03Q150.06 24.88 149.67 24.84Q149.28 24.80 148.86 24.80L148.86 24.80Q147.69 24.80 146.65 25.23Q145.61 25.66 144.84 26.46Q144.08 27.25 143.63 28.38Q143.19 29.50 143.19 30.91L143.19 30.91Q143.19 31.22 143.22 31.62Q143.26 32.02 143.33 32.43Q143.40 32.84 143.51 33.22Q143.61 33.59 143.78 33.89L143.78 33.89ZM194.63 34.01L197.83 39.26Q195.73 41.07 193.12 42.03Q190.52 43 187.73 43L187.73 43Q185.58 43 183.60 42.44Q181.62 41.89 179.88 40.87Q178.15 39.85 176.72 38.42Q175.30 37.00 174.28 35.26Q173.26 33.53 172.70 31.55Q172.15 29.56 172.15 27.42L172.15 27.42Q172.15 25.28 172.70 23.28Q173.26 21.29 174.28 19.56Q175.30 17.83 176.72 16.40Q178.15 14.97 179.88 13.95Q181.62 12.93 183.60 12.38Q185.58 11.82 187.73 11.82L187.73 11.82Q190.52 11.82 193.12 12.78Q195.73 13.73 197.83 15.56L197.83 15.56L194.63 20.81Q193.31 19.38 191.51 18.61Q189.70 17.85 187.73 17.85L187.73 17.85Q185.73 17.85 183.99 18.60Q182.25 19.36 180.94 20.65Q179.64 21.94 178.89 23.69Q178.13 25.45 178.13 27.42L178.13 27.42Q178.13 29.39 178.89 31.13Q179.64 32.86 180.94 34.16Q182.25 35.46 183.99 36.22Q185.73 36.97 187.73 36.97L187.73 36.97Q189.70 36.97 191.51 36.21Q193.31 35.44 194.63 34.01L194.63 34.01ZM221.66 30.91L221.66 30.91Q221.66 33.43 220.75 35.60Q219.85 37.77 218.30 39.36Q216.74 40.94 214.65 41.86Q212.56 42.77 210.17 42.77L210.17 42.77Q207.80 42.77 205.71 41.86Q203.62 40.94 202.06 39.36Q200.49 37.77 199.59 35.60Q198.69 33.43 198.69 30.91L198.69 30.91Q198.69 28.34 199.59 26.16Q200.49 23.98 202.06 22.39Q203.62 20.81 205.71 19.90Q207.80 19.00 210.17 19.00L210.17 19.00Q212.56 19.00 214.65 19.85Q216.74 20.70 218.30 22.27Q219.85 23.83 220.75 26.02Q221.66 28.22 221.66 30.91ZM215.88 30.91L215.88 30.91Q215.88 29.52 215.43 28.40Q214.98 27.27 214.20 26.47Q213.43 25.66 212.39 25.23Q211.35 24.80 210.17 24.80L210.17 24.80Q209.00 24.80 207.96 25.23Q206.92 25.66 206.15 26.47Q205.38 27.27 204.94 28.40Q204.50 29.52 204.50 30.91L204.50 30.91Q204.50 32.21 204.94 33.32Q205.38 34.43 206.15 35.25Q206.92 36.07 207.96 36.54Q209.00 37.02 210.17 37.02L210.17 37.02Q211.35 37.02 212.39 36.58Q213.43 36.13 214.20 35.34Q214.98 34.54 215.43 33.40Q215.88 32.27 215.88 30.91ZM253.42 28.07L253.42 42.35L247.71 42.35L247.71 28.07Q247.71 27.48 247.49 26.96Q247.27 26.43 246.87 26.04Q246.47 25.64 245.95 25.42Q245.42 25.20 244.84 25.20L244.84 25.20Q244.25 25.20 243.73 25.42Q243.22 25.64 242.83 26.04Q242.44 26.43 242.22 26.96Q242.00 27.48 242.00 28.07L242.00 28.07L242.00 42.35L236.27 42.35L236.27 28.07Q236.27 27.48 236.05 26.96Q235.83 26.43 235.43 26.04Q235.03 25.64 234.51 25.42Q233.98 25.20 233.39 25.20L233.39 25.20Q232.80 25.20 232.29 25.42Q231.78 25.64 231.39 26.04Q231.00 26.43 230.78 26.96Q230.56 27.48 230.56 28.07L230.56 28.07L230.56 42.35L224.83 42.35L224.83 19.86L226.21 19.86L227.77 21.58Q228.96 20.58 230.40 20.02Q231.84 19.46 233.39 19.46L233.39 19.46Q234.97 19.46 236.47 20.05Q237.97 20.64 239.10 22.09L239.10 22.09Q239.63 21.37 240.30 20.87Q240.97 20.37 241.72 20.05Q242.46 19.74 243.26 19.60Q244.06 19.46 244.84 19.46L244.84 19.46Q246.62 19.46 248.18 20.14Q249.75 20.81 250.91 21.97Q252.08 23.14 252.75 24.71Q253.42 26.29 253.42 28.07L253.42 28.07Z" transform="translate(0, 0)"></path></g></svg></svg>